<mxfile host="app.diagrams.net" agent="Mozilla/5.0 (Windows NT 10.0; Win64; x64) AppleWebKit/537.36 (KHTML, like Gecko) Chrome/123.0.0.0 Safari/537.36" version="24.8.3">
  <diagram id="C5RBs43oDa-KdzZeNtuy" name="Page-1">
    <mxGraphModel dx="1143" dy="655" grid="1" gridSize="10" guides="1" tooltips="1" connect="1" arrows="1" fold="1" page="1" pageScale="1" pageWidth="827" pageHeight="1169" math="0" shadow="0">
      <root>
        <mxCell id="WIyWlLk6GJQsqaUBKTNV-0" />
        <mxCell id="WIyWlLk6GJQsqaUBKTNV-1" parent="WIyWlLk6GJQsqaUBKTNV-0" />
        <mxCell id="WIyWlLk6GJQsqaUBKTNV-2" value="" style="rounded=0;html=1;jettySize=auto;orthogonalLoop=1;fontSize=11;endArrow=block;endFill=0;endSize=8;strokeWidth=1;shadow=0;labelBackgroundColor=none;edgeStyle=orthogonalEdgeStyle;entryX=0;entryY=0.5;entryDx=0;entryDy=0;" parent="WIyWlLk6GJQsqaUBKTNV-1" source="WIyWlLk6GJQsqaUBKTNV-3" target="WIyWlLk6GJQsqaUBKTNV-7" edge="1">
          <mxGeometry relative="1" as="geometry">
            <mxPoint x="370" y="95" as="targetPoint" />
          </mxGeometry>
        </mxCell>
        <mxCell id="nxlaYupGEVczuKN7mVsK-0" value="调用 hashCode方法" style="edgeLabel;html=1;align=center;verticalAlign=middle;resizable=0;points=[];" parent="WIyWlLk6GJQsqaUBKTNV-2" vertex="1" connectable="0">
          <mxGeometry x="-0.094" y="-2" relative="1" as="geometry">
            <mxPoint as="offset" />
          </mxGeometry>
        </mxCell>
        <mxCell id="WIyWlLk6GJQsqaUBKTNV-3" value="key 的类型很多，如果是字符串类型，就无法使用除留余数法构造哈希函数了" style="rounded=1;whiteSpace=wrap;html=1;fontSize=12;glass=0;strokeWidth=1;shadow=0;" parent="WIyWlLk6GJQsqaUBKTNV-1" vertex="1">
          <mxGeometry x="160" y="60" width="150" height="70" as="geometry" />
        </mxCell>
        <mxCell id="nxlaYupGEVczuKN7mVsK-2" style="edgeStyle=orthogonalEdgeStyle;rounded=0;orthogonalLoop=1;jettySize=auto;html=1;exitX=1;exitY=0.5;exitDx=0;exitDy=0;entryX=0;entryY=0.5;entryDx=0;entryDy=0;" parent="WIyWlLk6GJQsqaUBKTNV-1" source="WIyWlLk6GJQsqaUBKTNV-7" target="nxlaYupGEVczuKN7mVsK-1" edge="1">
          <mxGeometry relative="1" as="geometry" />
        </mxCell>
        <mxCell id="nxlaYupGEVczuKN7mVsK-3" value="利用补码规则转为正数" style="edgeLabel;html=1;align=center;verticalAlign=middle;resizable=0;points=[];" parent="nxlaYupGEVczuKN7mVsK-2" vertex="1" connectable="0">
          <mxGeometry x="0.0082" y="2" relative="1" as="geometry">
            <mxPoint as="offset" />
          </mxGeometry>
        </mxCell>
        <mxCell id="WIyWlLk6GJQsqaUBKTNV-7" value="hashCode 方法返回的整型数可能为负数" style="rounded=1;whiteSpace=wrap;html=1;fontSize=12;glass=0;strokeWidth=1;shadow=0;" parent="WIyWlLk6GJQsqaUBKTNV-1" vertex="1">
          <mxGeometry x="440" y="75" width="120" height="40" as="geometry" />
        </mxCell>
        <mxCell id="nxlaYupGEVczuKN7mVsK-5" style="edgeStyle=orthogonalEdgeStyle;rounded=0;orthogonalLoop=1;jettySize=auto;html=1;exitX=0.5;exitY=1;exitDx=0;exitDy=0;entryX=0.5;entryY=0;entryDx=0;entryDy=0;" parent="WIyWlLk6GJQsqaUBKTNV-1" source="nxlaYupGEVczuKN7mVsK-1" target="nxlaYupGEVczuKN7mVsK-4" edge="1">
          <mxGeometry relative="1" as="geometry" />
        </mxCell>
        <mxCell id="nxlaYupGEVczuKN7mVsK-7" value="缝合除留余数法" style="edgeLabel;html=1;align=center;verticalAlign=middle;resizable=0;points=[];" parent="nxlaYupGEVczuKN7mVsK-5" vertex="1" connectable="0">
          <mxGeometry x="-0.0857" y="1" relative="1" as="geometry">
            <mxPoint as="offset" />
          </mxGeometry>
        </mxCell>
        <mxCell id="nxlaYupGEVczuKN7mVsK-1" value="hashCode 的返回值一般都很大，不能直接作 key" style="rounded=1;whiteSpace=wrap;html=1;fontSize=12;glass=0;strokeWidth=1;shadow=0;" parent="WIyWlLk6GJQsqaUBKTNV-1" vertex="1">
          <mxGeometry x="690" y="75" width="120" height="40" as="geometry" />
        </mxCell>
        <mxCell id="nxlaYupGEVczuKN7mVsK-8" style="edgeStyle=orthogonalEdgeStyle;rounded=0;orthogonalLoop=1;jettySize=auto;html=1;" parent="WIyWlLk6GJQsqaUBKTNV-1" source="nxlaYupGEVczuKN7mVsK-4" edge="1">
          <mxGeometry relative="1" as="geometry">
            <mxPoint x="580" y="210" as="targetPoint" />
          </mxGeometry>
        </mxCell>
        <mxCell id="nxlaYupGEVczuKN7mVsK-10" value="用位运算" style="edgeLabel;html=1;align=center;verticalAlign=middle;resizable=0;points=[];" parent="nxlaYupGEVczuKN7mVsK-8" vertex="1" connectable="0">
          <mxGeometry x="-0.0135" y="-1" relative="1" as="geometry">
            <mxPoint x="1" y="-1" as="offset" />
          </mxGeometry>
        </mxCell>
        <mxCell id="nxlaYupGEVczuKN7mVsK-4" value="%运算的开销大" style="rounded=1;whiteSpace=wrap;html=1;fontSize=12;glass=0;strokeWidth=1;shadow=0;" parent="WIyWlLk6GJQsqaUBKTNV-1" vertex="1">
          <mxGeometry x="690" y="190" width="120" height="40" as="geometry" />
        </mxCell>
        <mxCell id="uVT4qS4KWNxR203_5THL-13" style="edgeStyle=orthogonalEdgeStyle;rounded=0;orthogonalLoop=1;jettySize=auto;html=1;exitX=1;exitY=0.5;exitDx=0;exitDy=0;entryX=0;entryY=0.5;entryDx=0;entryDy=0;" edge="1" parent="WIyWlLk6GJQsqaUBKTNV-1" source="uVT4qS4KWNxR203_5THL-10" target="uVT4qS4KWNxR203_5THL-15">
          <mxGeometry relative="1" as="geometry">
            <mxPoint x="310" y="359.72413793103453" as="targetPoint" />
          </mxGeometry>
        </mxCell>
        <mxCell id="uVT4qS4KWNxR203_5THL-10" value="" style="rounded=1;whiteSpace=wrap;html=1;" vertex="1" parent="WIyWlLk6GJQsqaUBKTNV-1">
          <mxGeometry x="80" y="330" width="160" height="80" as="geometry" />
        </mxCell>
        <mxCell id="uVT4qS4KWNxR203_5THL-11" style="edgeStyle=orthogonalEdgeStyle;rounded=0;orthogonalLoop=1;jettySize=auto;html=1;entryX=0.5;entryY=0;entryDx=0;entryDy=0;" edge="1" parent="WIyWlLk6GJQsqaUBKTNV-1">
          <mxGeometry relative="1" as="geometry">
            <mxPoint x="160" y="330" as="targetPoint" />
            <mxPoint x="160" y="250" as="sourcePoint" />
          </mxGeometry>
        </mxCell>
        <mxCell id="uVT4qS4KWNxR203_5THL-12" value="table" style="edgeLabel;html=1;align=center;verticalAlign=middle;resizable=0;points=[];" vertex="1" connectable="0" parent="uVT4qS4KWNxR203_5THL-11">
          <mxGeometry x="-0.0387" y="-1" relative="1" as="geometry">
            <mxPoint as="offset" />
          </mxGeometry>
        </mxCell>
        <mxCell id="uVT4qS4KWNxR203_5THL-14" style="edgeStyle=orthogonalEdgeStyle;rounded=0;orthogonalLoop=1;jettySize=auto;html=1;exitX=1;exitY=0.5;exitDx=0;exitDy=0;entryX=0;entryY=0.5;entryDx=0;entryDy=0;" edge="1" parent="WIyWlLk6GJQsqaUBKTNV-1" source="uVT4qS4KWNxR203_5THL-15" target="uVT4qS4KWNxR203_5THL-17">
          <mxGeometry relative="1" as="geometry">
            <mxPoint x="540" y="359.72413793103453" as="targetPoint" />
          </mxGeometry>
        </mxCell>
        <mxCell id="uVT4qS4KWNxR203_5THL-15" value="" style="rounded=1;whiteSpace=wrap;html=1;" vertex="1" parent="WIyWlLk6GJQsqaUBKTNV-1">
          <mxGeometry x="310" y="330" width="160" height="80" as="geometry" />
        </mxCell>
        <mxCell id="uVT4qS4KWNxR203_5THL-17" value="" style="rounded=1;whiteSpace=wrap;html=1;" vertex="1" parent="WIyWlLk6GJQsqaUBKTNV-1">
          <mxGeometry x="540" y="330" width="160" height="80" as="geometry" />
        </mxCell>
        <mxCell id="uVT4qS4KWNxR203_5THL-19" value="LinkedList&amp;lt;Entry&amp;lt;K, V&amp;gt;&amp;gt;" style="rounded=1;whiteSpace=wrap;html=1;" vertex="1" parent="WIyWlLk6GJQsqaUBKTNV-1">
          <mxGeometry x="90" y="340" width="140" height="60" as="geometry" />
        </mxCell>
        <mxCell id="uVT4qS4KWNxR203_5THL-20" value="LinkedList&amp;lt;Entry&amp;lt;K, V&amp;gt;&amp;gt;" style="rounded=1;whiteSpace=wrap;html=1;" vertex="1" parent="WIyWlLk6GJQsqaUBKTNV-1">
          <mxGeometry x="320" y="340" width="140" height="60" as="geometry" />
        </mxCell>
        <mxCell id="uVT4qS4KWNxR203_5THL-21" value="LinkedList&amp;lt;Entry&amp;lt;K, V&amp;gt;&amp;gt;" style="rounded=1;whiteSpace=wrap;html=1;" vertex="1" parent="WIyWlLk6GJQsqaUBKTNV-1">
          <mxGeometry x="550" y="340" width="140" height="60" as="geometry" />
        </mxCell>
        <mxCell id="uVT4qS4KWNxR203_5THL-23" value="" style="endArrow=none;html=1;rounded=0;" edge="1" parent="WIyWlLk6GJQsqaUBKTNV-1">
          <mxGeometry width="50" height="50" relative="1" as="geometry">
            <mxPoint x="80" y="450" as="sourcePoint" />
            <mxPoint x="130" y="400" as="targetPoint" />
          </mxGeometry>
        </mxCell>
        <mxCell id="uVT4qS4KWNxR203_5THL-24" value="" style="endArrow=none;html=1;rounded=0;" edge="1" parent="WIyWlLk6GJQsqaUBKTNV-1">
          <mxGeometry width="50" height="50" relative="1" as="geometry">
            <mxPoint x="230" y="450" as="sourcePoint" />
            <mxPoint x="190" y="400" as="targetPoint" />
          </mxGeometry>
        </mxCell>
        <mxCell id="uVT4qS4KWNxR203_5THL-26" style="edgeStyle=orthogonalEdgeStyle;rounded=0;orthogonalLoop=1;jettySize=auto;html=1;entryX=0.5;entryY=0;entryDx=0;entryDy=0;" edge="1" parent="WIyWlLk6GJQsqaUBKTNV-1">
          <mxGeometry relative="1" as="geometry">
            <mxPoint x="149.66" y="525" as="targetPoint" />
            <mxPoint x="149.66" y="445" as="sourcePoint" />
          </mxGeometry>
        </mxCell>
        <mxCell id="uVT4qS4KWNxR203_5THL-27" value="LinkedList" style="edgeLabel;html=1;align=center;verticalAlign=middle;resizable=0;points=[];" vertex="1" connectable="0" parent="uVT4qS4KWNxR203_5THL-26">
          <mxGeometry x="-0.0387" y="-1" relative="1" as="geometry">
            <mxPoint as="offset" />
          </mxGeometry>
        </mxCell>
        <mxCell id="uVT4qS4KWNxR203_5THL-29" style="edgeStyle=orthogonalEdgeStyle;rounded=0;orthogonalLoop=1;jettySize=auto;html=1;exitX=1;exitY=0.5;exitDx=0;exitDy=0;entryX=0;entryY=0.5;entryDx=0;entryDy=0;" edge="1" parent="WIyWlLk6GJQsqaUBKTNV-1" source="uVT4qS4KWNxR203_5THL-30" target="uVT4qS4KWNxR203_5THL-31">
          <mxGeometry relative="1" as="geometry">
            <mxPoint x="310" y="559.7241379310345" as="targetPoint" />
          </mxGeometry>
        </mxCell>
        <mxCell id="uVT4qS4KWNxR203_5THL-30" value="" style="rounded=1;whiteSpace=wrap;html=1;" vertex="1" parent="WIyWlLk6GJQsqaUBKTNV-1">
          <mxGeometry x="80" y="530" width="160" height="80" as="geometry" />
        </mxCell>
        <mxCell id="uVT4qS4KWNxR203_5THL-31" value="" style="rounded=1;whiteSpace=wrap;html=1;" vertex="1" parent="WIyWlLk6GJQsqaUBKTNV-1">
          <mxGeometry x="310" y="530" width="160" height="80" as="geometry" />
        </mxCell>
        <mxCell id="uVT4qS4KWNxR203_5THL-32" value="&amp;lt;Entry&amp;lt;K, V&amp;gt;" style="rounded=1;whiteSpace=wrap;html=1;" vertex="1" parent="WIyWlLk6GJQsqaUBKTNV-1">
          <mxGeometry x="90" y="540" width="140" height="60" as="geometry" />
        </mxCell>
        <mxCell id="uVT4qS4KWNxR203_5THL-33" value="&amp;lt;Entry&amp;lt;K, V&amp;gt;" style="rounded=1;whiteSpace=wrap;html=1;" vertex="1" parent="WIyWlLk6GJQsqaUBKTNV-1">
          <mxGeometry x="320" y="540" width="140" height="60" as="geometry" />
        </mxCell>
        <mxCell id="uVT4qS4KWNxR203_5THL-37" style="edgeStyle=orthogonalEdgeStyle;rounded=0;orthogonalLoop=1;jettySize=auto;html=1;exitX=1;exitY=0.5;exitDx=0;exitDy=0;entryX=0;entryY=0.5;entryDx=0;entryDy=0;" edge="1" parent="WIyWlLk6GJQsqaUBKTNV-1" target="uVT4qS4KWNxR203_5THL-38">
          <mxGeometry relative="1" as="geometry">
            <mxPoint x="540" y="559.7241379310345" as="targetPoint" />
            <mxPoint x="470" y="570" as="sourcePoint" />
          </mxGeometry>
        </mxCell>
        <mxCell id="uVT4qS4KWNxR203_5THL-38" value="" style="rounded=1;whiteSpace=wrap;html=1;" vertex="1" parent="WIyWlLk6GJQsqaUBKTNV-1">
          <mxGeometry x="540" y="530" width="160" height="80" as="geometry" />
        </mxCell>
        <mxCell id="uVT4qS4KWNxR203_5THL-39" value="&amp;lt;Entry&amp;lt;K, V&amp;gt;" style="rounded=1;whiteSpace=wrap;html=1;" vertex="1" parent="WIyWlLk6GJQsqaUBKTNV-1">
          <mxGeometry x="550" y="540" width="140" height="60" as="geometry" />
        </mxCell>
        <mxCell id="uVT4qS4KWNxR203_5THL-76" style="edgeStyle=orthogonalEdgeStyle;rounded=0;orthogonalLoop=1;jettySize=auto;html=1;exitX=1;exitY=0.75;exitDx=0;exitDy=0;entryX=0;entryY=0.75;entryDx=0;entryDy=0;" edge="1" parent="WIyWlLk6GJQsqaUBKTNV-1" source="uVT4qS4KWNxR203_5THL-41" target="uVT4qS4KWNxR203_5THL-70">
          <mxGeometry relative="1" as="geometry" />
        </mxCell>
        <mxCell id="uVT4qS4KWNxR203_5THL-41" value="" style="rounded=1;whiteSpace=wrap;html=1;" vertex="1" parent="WIyWlLk6GJQsqaUBKTNV-1">
          <mxGeometry x="40" y="880" width="224" height="150" as="geometry" />
        </mxCell>
        <mxCell id="uVT4qS4KWNxR203_5THL-42" style="edgeStyle=orthogonalEdgeStyle;rounded=0;orthogonalLoop=1;jettySize=auto;html=1;entryX=0.5;entryY=0;entryDx=0;entryDy=0;" edge="1" parent="WIyWlLk6GJQsqaUBKTNV-1">
          <mxGeometry relative="1" as="geometry">
            <mxPoint x="120" y="880" as="targetPoint" />
            <mxPoint x="120" y="800" as="sourcePoint" />
          </mxGeometry>
        </mxCell>
        <mxCell id="uVT4qS4KWNxR203_5THL-43" value="&lt;font style=&quot;font-size: 13px;&quot;&gt;table&lt;/font&gt;" style="edgeLabel;html=1;align=center;verticalAlign=middle;resizable=0;points=[];" vertex="1" connectable="0" parent="uVT4qS4KWNxR203_5THL-42">
          <mxGeometry x="-0.0387" y="-1" relative="1" as="geometry">
            <mxPoint as="offset" />
          </mxGeometry>
        </mxCell>
        <mxCell id="uVT4qS4KWNxR203_5THL-47" value="" style="rounded=1;whiteSpace=wrap;html=1;" vertex="1" parent="WIyWlLk6GJQsqaUBKTNV-1">
          <mxGeometry x="60" y="900" width="186" height="110" as="geometry" />
        </mxCell>
        <mxCell id="uVT4qS4KWNxR203_5THL-54" style="edgeStyle=orthogonalEdgeStyle;rounded=0;orthogonalLoop=1;jettySize=auto;html=1;exitX=1;exitY=0.5;exitDx=0;exitDy=0;entryX=0;entryY=0.5;entryDx=0;entryDy=0;" edge="1" parent="WIyWlLk6GJQsqaUBKTNV-1" source="uVT4qS4KWNxR203_5THL-55" target="uVT4qS4KWNxR203_5THL-56">
          <mxGeometry relative="1" as="geometry">
            <mxPoint x="334" y="1119.7241379310344" as="targetPoint" />
          </mxGeometry>
        </mxCell>
        <mxCell id="uVT4qS4KWNxR203_5THL-55" value="" style="rounded=1;whiteSpace=wrap;html=1;" vertex="1" parent="WIyWlLk6GJQsqaUBKTNV-1">
          <mxGeometry x="104" y="1090" width="160" height="80" as="geometry" />
        </mxCell>
        <mxCell id="uVT4qS4KWNxR203_5THL-56" value="" style="rounded=1;whiteSpace=wrap;html=1;" vertex="1" parent="WIyWlLk6GJQsqaUBKTNV-1">
          <mxGeometry x="334" y="1090" width="160" height="80" as="geometry" />
        </mxCell>
        <mxCell id="uVT4qS4KWNxR203_5THL-57" value="&amp;lt;Entry&amp;lt;K, V&amp;gt;" style="rounded=1;whiteSpace=wrap;html=1;" vertex="1" parent="WIyWlLk6GJQsqaUBKTNV-1">
          <mxGeometry x="114" y="1100" width="140" height="60" as="geometry" />
        </mxCell>
        <mxCell id="uVT4qS4KWNxR203_5THL-58" value="&amp;lt;Entry&amp;lt;K, V&amp;gt;" style="rounded=1;whiteSpace=wrap;html=1;" vertex="1" parent="WIyWlLk6GJQsqaUBKTNV-1">
          <mxGeometry x="344" y="1100" width="140" height="60" as="geometry" />
        </mxCell>
        <mxCell id="uVT4qS4KWNxR203_5THL-59" style="edgeStyle=orthogonalEdgeStyle;rounded=0;orthogonalLoop=1;jettySize=auto;html=1;exitX=1;exitY=0.5;exitDx=0;exitDy=0;entryX=0;entryY=0.5;entryDx=0;entryDy=0;" edge="1" parent="WIyWlLk6GJQsqaUBKTNV-1" target="uVT4qS4KWNxR203_5THL-60">
          <mxGeometry relative="1" as="geometry">
            <mxPoint x="564" y="1119.7241379310344" as="targetPoint" />
            <mxPoint x="494" y="1130" as="sourcePoint" />
          </mxGeometry>
        </mxCell>
        <mxCell id="uVT4qS4KWNxR203_5THL-60" value="" style="rounded=1;whiteSpace=wrap;html=1;" vertex="1" parent="WIyWlLk6GJQsqaUBKTNV-1">
          <mxGeometry x="564" y="1090" width="160" height="80" as="geometry" />
        </mxCell>
        <mxCell id="uVT4qS4KWNxR203_5THL-61" value="&amp;lt;Entry&amp;lt;K, V&amp;gt;" style="rounded=1;whiteSpace=wrap;html=1;" vertex="1" parent="WIyWlLk6GJQsqaUBKTNV-1">
          <mxGeometry x="574" y="1100" width="140" height="60" as="geometry" />
        </mxCell>
        <mxCell id="uVT4qS4KWNxR203_5THL-62" style="edgeStyle=orthogonalEdgeStyle;rounded=0;orthogonalLoop=1;jettySize=auto;html=1;entryX=0.75;entryY=0;entryDx=0;entryDy=0;" edge="1" parent="WIyWlLk6GJQsqaUBKTNV-1" target="uVT4qS4KWNxR203_5THL-47">
          <mxGeometry relative="1" as="geometry">
            <mxPoint x="210" y="890" as="targetPoint" />
            <mxPoint x="200" y="800" as="sourcePoint" />
            <Array as="points">
              <mxPoint x="200" y="810" />
              <mxPoint x="200" y="856" />
            </Array>
          </mxGeometry>
        </mxCell>
        <mxCell id="uVT4qS4KWNxR203_5THL-63" value="table" style="edgeLabel;html=1;align=center;verticalAlign=middle;resizable=0;points=[];" vertex="1" connectable="0" parent="uVT4qS4KWNxR203_5THL-62">
          <mxGeometry x="-0.0387" y="-1" relative="1" as="geometry">
            <mxPoint as="offset" />
          </mxGeometry>
        </mxCell>
        <mxCell id="uVT4qS4KWNxR203_5THL-65" value="&lt;span style=&quot;font-size: 12px; text-wrap: wrap; background-color: rgb(251, 251, 251);&quot;&gt;LinkedList&lt;/span&gt;&lt;b style=&quot;font-size: 12px; text-wrap: wrap; background-color: rgb(251, 251, 251);&quot;&gt;1&lt;/b&gt;&lt;span style=&quot;font-size: 12px; text-wrap: wrap; background-color: rgb(251, 251, 251);&quot;&gt;&amp;lt;Entry&amp;lt;K, V&amp;gt;&amp;gt;&lt;/span&gt;" style="edgeLabel;html=1;align=center;verticalAlign=middle;resizable=0;points=[];" vertex="1" connectable="0" parent="uVT4qS4KWNxR203_5THL-62">
          <mxGeometry x="0.0071" y="2" relative="1" as="geometry">
            <mxPoint as="offset" />
          </mxGeometry>
        </mxCell>
        <mxCell id="uVT4qS4KWNxR203_5THL-69" style="edgeStyle=orthogonalEdgeStyle;rounded=0;orthogonalLoop=1;jettySize=auto;html=1;entryX=0;entryY=0.5;entryDx=0;entryDy=0;" edge="1" parent="WIyWlLk6GJQsqaUBKTNV-1" source="uVT4qS4KWNxR203_5THL-66" target="uVT4qS4KWNxR203_5THL-68">
          <mxGeometry relative="1" as="geometry" />
        </mxCell>
        <mxCell id="uVT4qS4KWNxR203_5THL-66" value="&lt;font style=&quot;font-size: 9px;&quot;&gt;Entry&lt;b&gt;1&lt;/b&gt;&amp;lt;K, V&amp;gt;&lt;/font&gt;" style="rounded=1;whiteSpace=wrap;html=1;" vertex="1" parent="WIyWlLk6GJQsqaUBKTNV-1">
          <mxGeometry x="70" y="925" width="70" height="35" as="geometry" />
        </mxCell>
        <mxCell id="uVT4qS4KWNxR203_5THL-68" value="&lt;font style=&quot;font-size: 9px;&quot;&gt;Entry&lt;b&gt;2&lt;/b&gt;&amp;lt;K, V&amp;gt;&lt;/font&gt;" style="rounded=1;whiteSpace=wrap;html=1;" vertex="1" parent="WIyWlLk6GJQsqaUBKTNV-1">
          <mxGeometry x="160" y="925" width="66" height="35" as="geometry" />
        </mxCell>
        <mxCell id="uVT4qS4KWNxR203_5THL-70" value="" style="rounded=1;whiteSpace=wrap;html=1;" vertex="1" parent="WIyWlLk6GJQsqaUBKTNV-1">
          <mxGeometry x="344" y="880" width="224" height="150" as="geometry" />
        </mxCell>
        <mxCell id="uVT4qS4KWNxR203_5THL-71" value="" style="rounded=1;whiteSpace=wrap;html=1;" vertex="1" parent="WIyWlLk6GJQsqaUBKTNV-1">
          <mxGeometry x="364" y="900" width="186" height="110" as="geometry" />
        </mxCell>
        <mxCell id="uVT4qS4KWNxR203_5THL-72" style="edgeStyle=orthogonalEdgeStyle;rounded=0;orthogonalLoop=1;jettySize=auto;html=1;entryX=0;entryY=0.5;entryDx=0;entryDy=0;" edge="1" parent="WIyWlLk6GJQsqaUBKTNV-1" source="uVT4qS4KWNxR203_5THL-73" target="uVT4qS4KWNxR203_5THL-74">
          <mxGeometry relative="1" as="geometry" />
        </mxCell>
        <mxCell id="uVT4qS4KWNxR203_5THL-73" value="&lt;font style=&quot;font-size: 9px;&quot;&gt;Entry&lt;b&gt;1&lt;/b&gt;&amp;lt;K, V&amp;gt;&lt;/font&gt;" style="rounded=1;whiteSpace=wrap;html=1;" vertex="1" parent="WIyWlLk6GJQsqaUBKTNV-1">
          <mxGeometry x="379" y="925" width="70" height="35" as="geometry" />
        </mxCell>
        <mxCell id="uVT4qS4KWNxR203_5THL-74" value="&lt;font style=&quot;font-size: 9px;&quot;&gt;Entry&lt;b&gt;2&lt;/b&gt;&amp;lt;K, V&amp;gt;&lt;/font&gt;" style="rounded=1;whiteSpace=wrap;html=1;" vertex="1" parent="WIyWlLk6GJQsqaUBKTNV-1">
          <mxGeometry x="474" y="925" width="66" height="35" as="geometry" />
        </mxCell>
        <mxCell id="uVT4qS4KWNxR203_5THL-77" style="edgeStyle=orthogonalEdgeStyle;rounded=0;orthogonalLoop=1;jettySize=auto;html=1;entryX=0;entryY=0.5;entryDx=0;entryDy=0;" edge="1" parent="WIyWlLk6GJQsqaUBKTNV-1" source="uVT4qS4KWNxR203_5THL-47" target="uVT4qS4KWNxR203_5THL-71">
          <mxGeometry relative="1" as="geometry" />
        </mxCell>
        <mxCell id="uVT4qS4KWNxR203_5THL-78" style="edgeStyle=orthogonalEdgeStyle;rounded=0;orthogonalLoop=1;jettySize=auto;html=1;entryX=0;entryY=0.5;entryDx=0;entryDy=0;" edge="1" parent="WIyWlLk6GJQsqaUBKTNV-1">
          <mxGeometry relative="1" as="geometry">
            <mxPoint x="550" y="954.71" as="sourcePoint" />
            <mxPoint x="668" y="954.71" as="targetPoint" />
          </mxGeometry>
        </mxCell>
        <mxCell id="uVT4qS4KWNxR203_5THL-79" style="edgeStyle=orthogonalEdgeStyle;rounded=0;orthogonalLoop=1;jettySize=auto;html=1;exitX=1;exitY=0.75;exitDx=0;exitDy=0;entryX=0;entryY=0.75;entryDx=0;entryDy=0;" edge="1" parent="WIyWlLk6GJQsqaUBKTNV-1">
          <mxGeometry relative="1" as="geometry">
            <mxPoint x="568" y="990" as="sourcePoint" />
            <mxPoint x="648" y="990" as="targetPoint" />
          </mxGeometry>
        </mxCell>
      </root>
    </mxGraphModel>
  </diagram>
</mxfile>
